PathFileType	4	(X/Y/Z)	D:\Share\Shared_Data\Ergonomics\Sit To Stand Pertubation\S3\Perturbed.trc
DataRate	CameraRate	NumFrames	NumMarkers	Units	OrigDataRate	OrigDataStartFrame	OrigNumFrames	
100	100	18	18	m	100	8519	221
Frame#	Time	R_ASIS			R_Pelvis			V_Sacral			L_Pelvis			L_ASIS			Clavical			R_Acromium			L_Acromium			Sternum			Torso			R_Thigh_Med			R_Thigh_Lat			R_Thigh			R_Shank_Med			R_Shank_Lat			R_Shank			R_Heel			R_Toe			
		X1	Y1	Z1	X2	Y2	Z2	X3	Y3	Z3	X4	Y4	Z4	X5	Y5	Z5	X6	Y6	Z6	X7	Y7	Z7	X8	Y8	Z8	X9	Y9	Z9	X10	Y10	Z10	X11	Y11	Z11	X12	Y12	Z12	X13	Y13	Z13	X14	Y14	Z14	X15	Y15	Z15	X16	Y16	Z16	X17	Y17	Z17	X18	Y18	Z18	

8519	85.18	0.17393449	0.73024481	0.14659314	0.079248398	0.78510114	0.20460791	-0.012583267	0.83783917	0.0061089029	0.098250793	0.79464618	-0.19869214	0.18159123	0.72797797	-0.13424042	0.39631641	1.0703182	0.012146045	0.41078381	1.1461902	0.16819838	0.42043839	1.1617155	-0.12059576	0.37795206	0.99015594	0.01523531	0.39358838	1.0571862	-0.04666507	0.40006567	0.46774866	0.066283791	0.38020404	0.44213239	0.1776781	0.28168204	0.63407025	0.10564918	0.2998605	0.10549886	0.094516129	0.28218539	0.095335838	0.17535753	0.31295108	0.27165387	0.1933157	0.22383961	0.049289909	0.13406044	0.44156509	0.055570667	0.11939919
8520	85.19	0.17793428	0.7389986	0.14658887	0.082847771	0.79270721	0.20416904	-0.0086862888	0.8456958	0.0059950347	0.10224074	0.80262549	-0.19842604	0.18560422	0.7368374	-0.13368631	0.39705817	1.0833748	0.012530029	0.40992267	1.1590524	0.1689413	0.41929971	1.1742223	-0.1197961	0.3797933	1.0025063	0.015797384	0.39446262	1.0700603	-0.046438316	0.40107199	0.46933698	0.06696048	0.38004269	0.44246371	0.17752649	0.28575491	0.63682031	0.10641161	0.29973157	0.1055885	0.094606827	0.28218433	0.095238525	0.17551875	0.31260648	0.27196619	0.19333151	0.22380321	0.049130375	0.13397035	0.44146359	0.055668804	0.1194234
8521	85.2	0.1821153	0.74791101	0.14662558	0.086493546	0.80030035	0.2037394	-0.0047649083	0.85359344	0.0058508129	0.10625124	0.81057361	-0.19815396	0.1897675	0.74581793	-0.1331711	0.3975787	1.0966842	0.012902817	0.408759	1.1721456	0.16969258	0.41782965	1.1869517	-0.11940673	0.38151904	1.0150853	0.016265123	0.39516449	1.0832059	-0.046207653	0.40210126	0.47096497	0.067689926	0.37976602	0.44280557	0.1773745	0.28986362	0.63951752	0.10723375	0.29958563	0.10567395	0.094703247	0.28221411	0.095056168	0.17569455	0.31219653	0.27227783	0.19333586	0.22375488	0.049068401	0.13396245	0.44135635	0.055803429	0.11945806
8522	85.21	0.1864926	0.7569386	0.14669331	0.090232864	0.80784387	0.20332494	-0.0008027308	0.86145471	0.0056850824	0.11029471	0.8184635	-0.19787906	0.19409494	0.75488794	-0.13270668	0.39786145	1.1101974	0.013265369	0.40729318	1.1854149	0.17044839	0.41606552	1.1999014	-0.11934985	0.38307037	1.0278771	0.016616837	0.39568817	1.0965762	-0.045964985	0.40315454	0.47259863	0.06846019	0.37938928	0.44315311	0.17721339	0.29400021	0.6421405	0.10811349	0.29942108	0.10575558	0.094802513	0.28227036	0.094777618	0.1758775	0.31173352	0.27258551	0.19332457	0.2236904	0.049064629	0.13400786	0.44124142	0.055985985	0.11950348
8523	85.22	0.19107677	0.76603882	0.14678407	0.094107491	0.81530695	0.20292839	0.0032128248	0.86918695	0.0055348821	0.11438105	0.82627435	-0.19760065	0.19859789	0.76401831	-0.13230098	0.39788651	1.1238668	0.013619045	0.40552499	1.1988053	0.17120386	0.41398553	1.2130519	-0.11953724	0.38440155	1.0408539	0.016842796	0.39601135	1.1101254	-0.045709358	0.40423532	0.47421307	0.069253952	0.37892822	0.44350446	0.17702707	0.29815976	0.64467413	0.1090456	0.29923758	0.10583386	0.094900017	0.2823371	0.094409988	0.17605484	0.31122971	0.27288785	0.19329068	0.22360667	0.049091167	0.13408459	0.44111908	0.056223881	0.11955882
8524	85.23	0.19587164	0.77517291	0.14688994	0.098148735	0.82266644	0.20255125	0.0072905297	0.8766889	0.0054555221	0.11851634	0.83398932	-0.19731506	0.20328514	0.77318311	-0.1319579	0.39763379	1.1376473	0.013966068	0.40345233	1.2122643	0.17195474	0.41153641	1.2263688	-0.11989041	0.38547705	1.0539812	0.016941561	0.39610455	1.1238104	-0.045443398	0.40534708	0.47579205	0.070051003	0.37839673	0.44385919	0.17679488	0.30233936	0.64710907	0.11002206	0.29903534	0.10590919	0.094990547	0.28238498	0.093990524	0.17620819	0.31069485	0.27318515	0.19322618	0.22350188	0.049131027	0.13417735	0.44099118	0.056519054	0.11962145
8525	85.24	0.20087212	0.78430621	0.14700223	0.10237517	0.82990741	0.20219438	0.011437479	0.88389264	0.0054842291	0.12270385	0.84159344	-0.19701585	0.20816255	0.78235754	-0.13168025	0.39708524	1.1514966	0.014309786	0.4010704	1.2257411	0.17269905	0.40867957	1.239806	-0.12033932	0.38626266	1.0672258	0.016920488	0.39593884	1.1375896	-0.045170944	0.40649155	0.47732608	0.070831352	0.37780679	0.44421817	0.17649637	0.30653741	0.64944	0.1110319	0.29881366	0.10598162	0.095068893	0.28237753	0.09358725	0.17632707	0.31013522	0.27348026	0.19312215	0.22337584	0.049174786	0.13427521	0.44085925	0.056867786	0.1196861
8526	85.25	0.20606512	0.79341071	0.14711148	0.10679337	0.83702258	0.20185849	0.015660316	0.89079498	0.0056118908	0.12694916	0.84907294	-0.1966893	0.21323346	0.79151556	-0.13147131	0.39622723	1.1653722	0.014654671	0.39837253	1.2391879	0.17343748	0.40542468	1.253306	-0.1208183	0.38672504	1.0805591	0.016801163	0.39549017	1.1514225	-0.044895664	0.40766803	0.47880984	0.071577454	0.37716843	0.44458292	0.17611508	0.31075443	0.6516626	0.11206036	0.29857178	0.10605079	0.095130592	0.2822869	0.093278091	0.17642308	0.30955441	0.27377869	0.19296902	0.22323073	0.04921664	0.13436931	0.44072327	0.057260735	0.11974487
8527	85.26	0.2114317	0.80246564	0.14720833	0.11140027	0.84401111	0.20154562	0.019963537	0.89742883	0.0058014631	0.13126665	0.85641583	-0.19631078	0.21849831	0.80062964	-0.13133289	0.39505112	1.1792318	0.015006325	0.39535187	1.252558	0.17417276	0.40182321	1.2668014	-0.12126987	0.38685306	1.0939572	0.016628002	0.3947424	1.1652684	-0.044620159	0.40887149	0.48023944	0.072274712	0.37648843	0.44495502	0.17564023	0.31499127	0.65377356	0.11308945	0.29831088	0.10611578	0.095172058	0.28210815	0.09311084	0.17651462	0.30895358	0.27408649	0.19275818	0.2230721	0.049250755	0.13445065	0.44058289	0.057682972	0.11978964
8528	85.27	0.21694933	0.81145679	0.1472852	0.11618601	0.85087561	0.2012603	0.024348818	0.90382098	0.0060199056	0.13568056	0.86361047	-0.19584813	0.22395154	0.80967316	-0.13126054	0.39355374	1.1930302	0.015371367	0.39200372	1.2658057	0.17490761	0.39792981	1.280219	-0.12165478	0.38668219	1.1073942	0.016471716	0.39368973	1.1790837	-0.044345619	0.41008932	0.48161032	0.072911591	0.37576898	0.44533572	0.17506732	0.31924512	0.65576849	0.11410036	0.29803525	0.10617514	0.095190926	0.28186447	0.093075935	0.17659944	0.30833139	0.27440768	0.19248346	0.22290881	0.049268333	0.13450848	0.44043951	0.058115185	0.1198149
8529	85.28	0.22259361	0.82037366	0.14733833	0.12113675	0.85761975	0.20100905	0.028816544	0.90998059	0.006247467	0.14021866	0.87064514	-0.1952706	0.22957925	0.81862207	-0.1312404	0.39173795	1.2067181	0.015756531	0.38832669	1.2788827	0.17564424	0.39377658	1.2934839	-0.1219559	0.38628021	1.1208356	0.016409695	0.3923371	1.1928208	-0.044071911	0.41129971	0.48291461	0.073479942	0.37500638	0.44572635	0.17439841	0.32350714	0.65764008	0.11507577	0.29775061	0.10622677	0.095186691	0.28159738	0.093121834	0.17665552	0.30768506	0.27474426	0.19214195	0.22275208	0.049257198	0.13453052	0.44029758	0.05853635	0.11981859
8530	85.29	0.22834027	0.82920483	0.14736984	0.12623671	0.86424585	0.20079866	0.033366478	0.91590472	0.0064743848	0.14490482	0.87750909	-0.19455621	0.23536037	0.82745367	-0.13125003	0.38961411	1.2202407	0.016167271	0.38432355	1.2917374	0.1763844	0.38937607	1.3065211	-0.12217332	0.38570453	1.1342338	0.016491293	0.39069891	1.206428	-0.043798336	0.41247495	0.48414191	0.073974953	0.37419101	0.44612927	0.17364124	0.32776483	0.65937805	0.11599993	0.29746213	0.10626833	0.09516127	0.28135214	0.093188156	0.17665919	0.30701102	0.27509729	0.1917352	0.22261357	0.049204308	0.13450537	0.44016348	0.058926929	0.11980077
8531	85.3	0.23416707	0.8379361	0.14738832	0.13146883	0.87075159	0.20063448	0.0379972	0.92158307	0.0066965837	0.14975572	0.88419214	-0.19370137	0.24126991	0.83614386	-0.13126263	0.38720078	1.2335374	0.016607088	0.38000107	1.3043146	0.17712984	0.38473267	1.3192566	-0.12231767	0.38498108	1.1475304	0.016723679	0.38879739	1.2198501	-0.043524376	0.41358578	0.48528217	0.074394012	0.37330762	0.44654846	0.17280736	0.33200562	0.66097321	0.11685744	0.29717365	0.10629821	0.095119347	0.28116522	0.093224716	0.17659537	0.30630359	0.27546759	0.19127029	0.22250374	0.049098637	0.13442506	0.44004337	0.059272301	0.11976243
8532	85.31	0.24005551	0.84654688	0.14740625	0.13681514	0.87712836	0.20052005	0.042705715	0.92700244	0.0069124384	0.15478032	0.89068274	-0.19273564	0.2472825	0.84466455	-0.13125092	0.38452515	1.2465442	0.01707761	0.37537085	1.3165565	0.17788234	0.37985025	1.331619	-0.1224054	0.38411475	1.1606608	0.017084429	0.38666196	1.2330303	-0.043250114	0.41460263	0.48632745	0.074735168	0.37233621	0.44698956	0.171911	0.33621622	0.66242163	0.1176321	0.29688757	0.10631648	0.095067917	0.28105765	0.093198059	0.17645985	0.30555264	0.27585608	0.19075932	0.2224297	0.048934288	0.13428729	0.43994061	0.059566334	0.11970566
8533	85.32	0.24599254	0.85500995	0.14743646	0.14225839	0.88335986	0.20045877	0.047487198	0.93214941	0.0071214833	0.159979	0.89696661	-0.19173637	0.25337529	0.85298334	-0.13118913	0.38162222	1.2591969	0.017578531	0.37045071	1.3284042	0.17864381	0.37473715	1.343542	-0.1224556	0.38310605	1.1735566	0.017538527	0.38432877	1.2459109	-0.042976551	0.4154967	0.48727222	0.074995605	0.37125562	0.44745883	0.17096886	0.34038226	0.66372705	0.11830611	0.29660394	0.10632461	0.095015312	0.28103284	0.093095856	0.17626132	0.30474368	0.27626279	0.19021767	0.22239175	0.048718349	0.13410223	0.43985477	0.059813713	0.11963352
8534	85.33	0.25197041	0.86328925	0.14748952	0.14778464	0.88942389	0.20045677	0.052334641	0.93701086	0.0073235235	0.16534319	0.90302563	-0.1908262	0.25952963	0.86106396	-0.13105458	0.37853247	1.2714323	0.018107533	0.36526541	1.3397994	0.17941591	0.36940903	1.3549633	-0.12248792	0.3819599	1.1861521	0.018049694	0.38183887	1.258433	-0.042706299	0.41624103	0.48811316	0.075170616	0.37004764	0.44796188	0.16999913	0.3444903	0.66489966	0.11886067	0.29632025	0.10632479	0.094970154	0.28107541	0.092932297	0.17602354	0.30386118	0.27668613	0.18966197	0.22238025	0.048477367	0.13389806	0.4397818	0.060029331	0.11954899
8535	85.34	0.25798135	0.87133905	0.14757343	0.15338358	0.89529529	0.20052454	0.057238762	0.94157446	0.0075181623	0.17085994	0.90883917	-0.19012442	0.26573035	0.86886774	-0.13083034	0.37529849	1.2831921	0.018660629	0.35984698	1.3506854	0.18019986	0.36388971	1.3658275	-0.12252097	0.38068777	1.1983857	0.018586582	0.37923224	1.2705398	-0.042444519	0.41681287	0.48884909	0.075253784	0.36870126	0.44850232	0.16901958	0.34852759	0.66595398	0.11927924	0.29603339	0.10631976	0.094940704	0.28115506	0.09274337	0.17578108	0.3028924	0.27712289	0.18910793	0.22237906	0.048247269	0.13371175	0.43971503	0.060234684	0.11945405
8536	85.35	0.26400934	0.87910632	0.1476942	0.15904575	0.90094916	0.20067485	0.062188763	0.94582715	0.007705111	0.17651653	0.91438715	-0.18968651	0.27196411	0.87635583	-0.13050882	0.37196173	1.294422	0.019232611	0.35423422	1.36101	0.18099602	0.35821048	1.3760857	-0.12257119	0.37930627	1.2102019	0.019125372	0.37653915	1.2821761	-0.042199787	0.41719388	0.48948007	0.075239502	0.36721466	0.44907935	0.16804654	0.35247891	0.6669043	0.11955247	0.29574173	0.10631208	0.094934525	0.28123999	0.09256073	0.17556105	0.30183063	0.27756882	0.18856877	0.22237299	0.048053158	0.13357065	0.43964682	0.060452347	0.11935027
